<svg width="8" height="5" viewBox="0 0 8 5" xmlns="http://www.w3.org/2000/svg"><g id="Main" stroke="none" stroke-width="1" fill="none" fill-rule="evenodd"><g id="Homepage" transform="translate(-354 -53)" fill="#BCBCBC" fill-rule="nonzero"><g id="1-main" transform="translate(130 32)"><g id="header"><g transform="translate(116 12)" id="1"><path d="M3.18 2.502L6.364-.491a.421.421 0 000-.619l-.279-.262a.477.477 0 00-.33-.128.477.477 0 00-.328.128L1.636 2.19a.421.421 0 000 .621l3.787 3.56a.477.477 0 00.33.128.477.477 0 00.329-.128l.279-.262a.42.42 0 000-.619L3.181 2.5z" transform="rotate(-90 62.5 -47)" id="arrow/gray"/></g></g></g></g></g></svg>