<svg width="162" height="32" viewBox="0 0 162 32" xmlns="http://www.w3.org/2000/svg"><g id="Main" stroke="none" stroke-width="1" fill="none" fill-rule="evenodd"><g id="Homepage" transform="translate(-837 -711)" fill="#C5C5C5" fill-rule="nonzero"><g id="1-main" transform="translate(130 32)"><g id="logo" transform="translate(0 675)"><g transform="translate(707 4)" id="-Entrepreneur"><path id="Path" d="M.237 21.54l2.048-.325V2.34L0 2.044.119 0h14.3l-.355 5.719-2.849-.09-.178-3.585h-4.42v8.504h1.928l.445-1.955 1.988.059v5.867H8.99l-.475-2.015H6.587v9.007h4.45l.416-3.911 2.996.089.238 5.955H.148zm15.785 2.134l.089-1.748 1.602-.326V9.689l-1.869-.178V7.733l4.688-.681.356 1.007v.682c1.127-1.185 2.492-1.897 4.243-1.897 2.551 0 4.45 1.541 4.45 4.593V21.57l1.692.326-.09 1.748h-5.578V12.326c0-1.63-.593-2.548-2.076-2.548-.505 0-.86.089-1.247.237-.237.207-.474.504-.682.77V21.63l1.691.326-.118 1.748h-7.151v-.03zm89.634 0l.06-1.748 1.602-.326V9.689l-1.87-.178V7.733l4.688-.681.356 1.007v.682c1.128-1.185 2.493-1.897 4.243-1.897 2.552 0 4.45 1.541 4.45 4.593V21.57l1.692.326-.09 1.748h-5.547V12.326c0-1.63-.594-2.548-2.077-2.548-.505 0-.86.089-1.247.237-.237.207-.474.504-.682.77V21.63l1.691.326-.118 1.748h-7.151v-.03zm-65.542-.326c-.652.267-1.81.563-3.323.563-1.988 0-3.827-.889-3.827-3.792V9.689l-1.9-.296.09-2.074 2.136-.09.92-3.17 2.73-.118v3.407h2.937l-.208 2.074-2.7.297v10.43c0 .858.475 1.421 1.365 1.421h1.602l.178 1.778zm111.056.326l.06-1.718 1.513-.356V9.689l-1.78-.178V7.733l4.866-.681.326 1.155v.386c1.276-.949 2.997-1.57 5.074-1.57l.712.621-.505 4.504-2.67-.089-.267-2.4c-.623.09-1.217.267-1.721.622V21.63l1.691.355-.118 1.719h-7.18v-.03zm-69.873 0l.089-1.718 1.513-.356V9.689l-1.78-.178V7.733l4.866-.681.326 1.155v.386c1.276-.949 2.997-1.57 5.074-1.57l.712.621-.564 4.504-2.67-.089-.267-2.4c-.623.09-1.217.267-1.721.622V21.63l1.69.355-.118 1.719h-7.15v-.03zm-39.996 0l.09-1.718 1.512-.356V9.689l-1.78-.178V7.733l4.866-.681.326 1.155v.386c1.276-.949 2.997-1.57 5.044-1.57l.712.621-.504 4.504-2.67-.089-.267-2.4c-.623.09-1.217.267-1.721.622V21.63l1.691.355-.119 1.719h-7.18v-.03z"/><path d="M56.67 16.415c0 2.844 1.246 5.037 3.71 5.037 1.275 0 2.284-.267 3.47-.83l.683 1.57c-1.217.978-2.997 1.72-5.222 1.72-4.332 0-6.824-3.734-6.824-8.534 0-4.09 1.81-8.563 6.765-8.563 4.332 0 5.963 4 5.963 8.444l-.415 1.067-8.13.089zm-.059-1.896l4.985-.238c-.09-1.985-.505-5.125-2.463-5.125-.475 0-.801.088-1.395.385-.8 1.363-1.127 3.822-1.127 4.978zm69.013 1.896c0 2.844 1.246 5.037 3.709 5.037 1.276 0 2.285-.267 3.471-.83l.683 1.57c-1.217.978-2.997 1.72-5.222 1.72-4.332 0-6.824-3.734-6.824-8.534 0-4.09 1.81-8.563 6.764-8.563 4.332 0 5.964 4 5.964 8.444l-.415 1.067-8.13.089zm-.06-1.896l4.985-.238c-.089-1.985-.504-5.125-2.462-5.125-.475 0-.801.088-1.395.385-.8 1.363-1.127 3.822-1.127 4.978zm-28.898 1.896c0 2.844 1.246 5.037 3.709 5.037 1.276 0 2.284-.267 3.471-.83l.683 1.57c-1.217.978-2.997 1.72-5.222 1.72-4.332 0-6.825-3.734-6.825-8.534 0-4.09 1.81-8.563 6.765-8.563 4.332 0 5.964 4 5.964 8.444l-.415 1.067-8.13.089zm-.06-1.896l4.985-.238c-.089-1.985-.504-5.125-2.462-5.125-.475 0-.802.088-1.395.385-.801 1.363-1.157 3.822-1.127 4.978z" id="Shape"/><path d="M145.385 23.674l-.416-1.422c-1.098 1.037-2.166 1.66-3.827 1.66-2.552 0-4.837-1.275-4.837-4.8V9.273l-1.869-.178v-1.57l5.4-.622.416 1.422v10.311c0 1.807.741 2.756 2.195 2.756.416 0 .95-.06 1.424-.237a5.62 5.62 0 00.742-.919V9.274l-1.928-.178v-1.57l5.459-.622.415 1.422V21.6l1.692.326-.208 1.748h-4.658z" id="Path"/><path d="M73.315 21.54c-.86 0-1.542-.147-2.077-.444V10.637c.238-.356.505-.681.772-.978.504-.178.95-.237 1.483-.237 2.226 0 2.611 2.252 2.611 6.282 0 3.881-.593 4.948-.741 5.392a4.613 4.613 0 01-2.048.445zm6.647-6.547c0-5.008-1.484-8.149-5.193-8.149-2.462 0-3.62 1.423-4.094 2.015v-.563l-.416-1.422-4.836.682v1.718l1.87.237V29.72l-1.603.325-.089 1.69h7.15l.12-1.69-1.692-.325v-6.4c.683.385 1.632.622 2.67.622 6.053 0 6.113-6.134 6.113-8.948z" id="Shape"/></g></g></g></g></g></svg>