<svg width="513" height="599" viewBox="0 0 513 599" xmlns="http://www.w3.org/2000/svg"><g id="Main" stroke="none" stroke-width="1" fill="none" fill-rule="evenodd"><g id="Homepage" transform="translate(-901 -36)" fill="#ECECEC" fill-rule="nonzero"><g id="1-main" transform="translate(130 32)"><g id="oval-main" transform="translate(772 5)"><path d="M481.815 39.18l-.345-.495c-16.074-23.091-47.79-35.779-91.367-38.92C352.716-2.927 307.687 1.6 262.586 11.68c-81.946 18.415-146.05 52.13-193.94 101.725C18.282 165.581-8.875 229.002 1.042 279.76c3.798 19.436 13.084 38.303 28.375 59.462l1.262 1.735c7.5 10.231 16.157 20.764 28.437 34.863l21.646 24.602c5.925 6.754 10.697 12.273 15.37 17.799a749.63 749.63 0 0113.01 15.79l3.077 3.85c6.034 7.583 12.19 15.645 20.478 26.73l12.912 17.33c23.409 31.333 36.753 47.832 52.706 64.027l.505.512c21.979 22.226 43.554 37.073 66.837 44.707 65.19 21.829 151.501-10.513 186.027-69.881 10.545-18.374 16.642-40 19.62-66.926l.126-1.157c2.175-20.384 2.547-37.562 2.271-77.765l-.071-10.11c-.246-38.942.145-58.611 2.14-82.973.794-10.239 1.927-20.99 3.42-32.756l.417-3.234c1.561-11.978 3.213-23.19 6.103-41.901l1.646-10.71c6.843-44.744 8.89-61.713 9.52-83.251l.02-.704c.863-31.08-3.632-54.06-15.08-70.62zM84.333 401.463l-22.305-25.349-2.091-2.399c-12.34-14.189-20.968-24.74-28.483-35.09l-.416-.575C15.903 317.107 6.74 298.49 3.005 279.377c-9.772-50.015 17.126-112.832 67.08-164.582C117.69 65.496 181.443 31.965 263.024 13.63l3.028-.668c43.906-9.57 87.57-13.82 123.907-11.201 42.604 3.07 73.586 15.324 89.399 37.4l.474.671c11.295 16.013 15.834 38.456 15.09 68.984l-.025.928c-.61 22-2.66 38.936-9.745 85.19l-2.767 18c-1.967 12.891-3.292 22.024-4.526 31.377l-.236 1.795c-1.633 12.53-2.871 23.9-3.736 34.687l-.295 3.705c-1.901 24.157-2.223 44.351-1.937 84.59l.062 8.81c.244 38.384-.156 55.227-2.276 75.093-2.903 27.21-8.95 48.932-19.488 67.294-34.046 58.542-119.369 90.514-183.667 68.983-22.666-7.432-43.744-21.835-65.238-43.402l-.806-.812c-16.598-16.786-30.262-33.772-55.278-67.343l-8.939-12.005c-9.184-12.31-15.78-20.971-22.24-29.09l-2.06-2.575a729.756 729.756 0 00-12.916-15.75l-2.228-2.635a1226.078 1226.078 0 00-12.248-14.192z" id="Path"/><path d="M500.617 111.331l-.31-.444c-12.107-17.402-35.962-26.95-68.712-29.312-28.067-2.023-61.862 1.376-95.71 8.946-61.506 13.83-109.627 39.154-145.58 76.407-37.825 39.207-58.225 86.875-50.769 125.057 2.807 14.373 9.597 28.325 20.733 43.899l.59.82c5.813 8.048 12.465 16.19 22.098 27.262l7.96 9.07 6.432 7.297c5.416 6.157 9.536 10.909 13.56 15.669 3.405 4.03 6.581 7.88 9.613 11.668l2.727 3.416c3.77 4.75 7.627 9.777 12.437 16.182l13.42 17.995c17.068 22.815 26.94 34.954 38.831 46.986 16.51 16.705 32.723 27.868 50.228 33.61 49.003 16.419 113.86-7.898 139.815-52.551 7.905-13.783 12.483-29.988 14.727-50.144l.213-1.99c1.447-13.962 1.77-26.236 1.638-52.033l-.106-16.608c-.138-26.85.192-41.125 1.625-58.628.616-7.96 1.507-16.331 2.687-25.536l.46-3.527c.868-6.528 1.806-13.005 3.152-21.85l2.88-18.78c4.741-31.201 6.193-43.632 6.651-59.281l.015-.529c.647-23.326-2.719-40.598-11.305-53.071zM185.71 364.081l-2.451-2.818c-8.95-10.328-15.254-18.08-20.778-25.73-11.332-15.69-18.189-29.628-20.982-43.931-7.31-37.44 12.83-84.504 50.245-123.285 35.667-36.957 83.438-62.097 144.579-75.845 33.67-7.53 67.276-10.91 95.129-8.902 31.885 2.3 55.055 11.468 66.863 27.963l.355.502c8.417 11.939 11.815 28.687 11.275 51.475l-.022.837c-.443 15.97-1.897 28.385-6.809 60.643l-2.925 19.083c-1.375 9.067-2.317 15.65-3.22 22.577l-.373 2.917c-1.033 8.186-1.833 15.724-2.413 22.914l-.283 3.565c-1.283 16.553-1.58 30.769-1.449 56.487l.107 16.602c.135 26.31-.204 38.503-1.726 52.771-2.174 20.388-6.7 36.656-14.584 50.402-25.474 43.827-89.343 67.773-137.454 51.653-17.171-5.633-33.13-16.62-49.434-33.118l-1.498-1.527c-11.534-11.853-21.513-24.281-38.812-47.47l-7.83-10.52c-7.103-9.527-12.143-16.141-17.135-22.4l-1.096-1.37a546.288 546.288 0 00-9.535-11.638l-1.953-2.31a894.596 894.596 0 00-7.991-9.28l-17.8-20.248z" id="Path"/></g></g></g></g></svg>