<svg width="301" height="24" viewBox="0 0 301 24" xmlns="http://www.w3.org/2000/svg"><g id="Main" stroke="none" stroke-width="1" fill="none" fill-rule="evenodd"><g id="Homepage" transform="translate(-255 -711)" fill="#BCBCBC" fill-rule="nonzero"><g id="1-main" transform="translate(130 32)"><g id="logo" transform="translate(0 675)"><path d="M141.366 27.425v-1.18a16.71 16.71 0 01-1.246-.205c-.49-.095-.85-.189-1.081-.28-.383-.161-.64-.38-.77-.658a2.227 2.227 0 01-.197-.96V7.298h.71c.343 0 .75.015 1.224.045s.872.066 1.194.106c.584.08 1.222.646 1.912 1.695.69 1.05 1.191 2.033 1.503 2.95h1.164V5.953H125v6.144h1.164c.312-.918.813-1.902 1.503-2.951.69-1.05 1.328-1.614 1.912-1.695.322-.04.72-.075 1.194-.106.473-.03.881-.045 1.224-.045h.71v16.994c0 .373-.065.696-.196.968s-.393.49-.786.65c-.192.081-.552.15-1.08.205l-1.232.129v1.18h11.953zm14.357 0V26.32a4.937 4.937 0 01-.718-.151 2.518 2.518 0 01-.597-.242c-.252-.141-.423-.32-.514-.537-.09-.217-.136-.512-.136-.886v-8.126c.121-.161.27-.348.446-.56.176-.211.41-.418.703-.62a4.193 4.193 0 011.02-.53 3.4 3.4 0 011.125-.181c.716 0 1.267.257 1.655.772.388.514.582 1.29.582 2.33v7.082c0 .413-.043.726-.128.938a.927.927 0 01-.446.484c-.131.07-.333.121-.605.152-.272.03-.508.055-.71.075v1.105h9.097V26.32a5.972 5.972 0 01-.816-.151 4.225 4.225 0 01-.604-.212c-.302-.131-.509-.308-.62-.53-.11-.221-.166-.52-.166-.892V17.12c0-1.534-.41-2.77-1.232-3.708-.82-.938-2.047-1.407-3.68-1.407a7.05 7.05 0 00-1.941.257c-.6.172-1.086.379-1.458.62a8.494 8.494 0 00-1.126.84l-1.035.931h-.06V4.243L153.53 4l-7.51.393v1.105c.302.02.645.068 1.027.144.383.076.675.179.877.31.272.182.483.454.635.817.15.363.226.706.226 1.03V24.67c0 .373-.058.673-.174.9-.115.227-.335.401-.657.522-.191.07-.41.121-.657.152-.247.03-.502.055-.763.075v1.105h9.188zm21.005.484c.897 0 1.69-.098 2.38-.295a9.316 9.316 0 002.048-.87 7.753 7.753 0 001.7-1.309 9.201 9.201 0 001.277-1.627l-1.148-.832a7.292 7.292 0 01-1.935 1.975c-.755.52-1.607.78-2.554.78-1.733 0-2.997-.54-3.793-1.62-.796-1.08-1.194-2.653-1.194-4.721h10.216v-.984c0-.857-.13-1.677-.393-2.459a5.16 5.16 0 00-1.254-2.035c-.595-.606-1.345-1.08-2.252-1.423-.907-.343-2.065-.514-3.476-.514-1.29 0-2.455.222-3.498.666-1.043.443-1.907 1.024-2.592 1.74a7.937 7.937 0 00-1.61 2.52 7.884 7.884 0 00-.566 2.958c0 1.14.174 2.196.522 3.17a6.845 6.845 0 001.579 2.535c.705.716 1.6 1.286 2.682 1.71 1.083.423 2.37.635 3.861.635zm-3.219-9.79c.04-1.705.293-2.951.756-3.738.463-.787 1.083-1.18 1.859-1.18.453 0 .828.12 1.126.363.297.242.531.6.702 1.074.151.404.257.923.318 1.559.06.635.09 1.256.09 1.861l-4.85.06zM202.6 28c1.411 0 2.646-.172 3.703-.515a8.903 8.903 0 002.796-1.467 6.248 6.248 0 001.753-2.164 5.96 5.96 0 00.65-2.694c0-1.473-.38-2.706-1.141-3.7-.76-.993-1.871-1.773-3.332-2.338a42.474 42.474 0 00-2.07-.726c-.776-.252-1.537-.504-2.283-.757-1.269-.413-2.203-.892-2.803-1.437-.6-.545-.899-1.246-.899-2.104 0-.908.345-1.67 1.035-2.285.69-.615 1.58-.923 2.667-.923.867 0 1.622.174 2.267.522a5.873 5.873 0 011.708 1.4c.453.545.884 1.228 1.292 2.05a28.12 28.12 0 011.065 2.414h1.3l-.12-7.324h-1.316l-.921.908c-.595-.333-1.41-.663-2.449-.991a11.026 11.026 0 00-3.34-.492c-1.218 0-2.347.182-3.384.545-1.038.363-1.89.832-2.554 1.407a6.419 6.419 0 00-1.587 2.08 5.61 5.61 0 00-.544 2.414c0 1.322.35 2.517 1.05 3.587.7 1.07 1.77 1.891 3.211 2.466.625.243 1.293.48 2.003.712.71.232 1.488.484 2.335.756 1.3.414 2.259.906 2.878 1.476.62.57.93 1.273.93 2.11 0 1.02-.365 1.864-1.096 2.535-.73.671-1.78 1.007-3.15 1.007-1.018 0-1.907-.212-2.668-.636a8.12 8.12 0 01-2.063-1.65 11.356 11.356 0 01-1.571-2.194 20.157 20.157 0 01-1.119-2.33h-1.3l.197 7.763h1.285l1.042-1.06c.786.445 1.746.828 2.88 1.15 1.133.324 2.354.485 3.664.485zm15.294-18.446c.806 0 1.504-.27 2.093-.81.59-.54.884-1.193.884-1.96 0-.766-.292-1.422-.876-1.967a2.973 2.973 0 00-2.1-.817 3 3 0 00-2.109.817c-.59.545-.884 1.2-.884 1.967 0 .767.295 1.42.884 1.96.59.54 1.292.81 2.108.81zm5.184 17.871V26.32a4.555 4.555 0 01-.756-.151 5.098 5.098 0 01-.665-.242 1.374 1.374 0 01-.65-.552c-.15-.248-.226-.548-.226-.9V12.458l-.227-.227-7.405.393v1.105c.302.03.637.101 1.005.212.368.111.642.227.824.348.241.161.443.376.604.643.161.268.242.578.242.93v8.808c0 .373-.066.673-.197.9-.13.227-.357.401-.68.522-.181.07-.398.121-.65.152-.251.03-.508.055-.77.075v1.105h9.55zm10.593 0V26.32a3.884 3.884 0 01-.786-.151 5.913 5.913 0 01-.634-.242c-.293-.131-.504-.313-.635-.545-.131-.232-.197-.535-.197-.908V4.242L231.192 4l-7.602.393v1.105a5 5 0 011.08.212c.409.121.714.247.915.378.262.172.471.421.627.75.157.327.235.683.235 1.066v16.767c0 .373-.058.673-.174.9-.116.227-.335.401-.658.522-.191.07-.41.121-.657.152-.247.03-.501.055-.763.075v1.105h9.475zm5.818-17.871c.806 0 1.504-.27 2.093-.81.59-.54.884-1.193.884-1.96 0-.766-.292-1.422-.876-1.967a2.973 2.973 0 00-2.1-.817 3 3 0 00-2.109.817c-.59.545-.884 1.2-.884 1.967 0 .767.295 1.42.884 1.96.59.54 1.292.81 2.108.81zm5.184 17.871V26.32a4.555 4.555 0 01-.756-.151 5.098 5.098 0 01-.665-.242 1.374 1.374 0 01-.65-.552c-.15-.248-.226-.548-.226-.9V12.458l-.227-.227-7.405.393v1.105c.302.03.637.101 1.005.212.368.111.642.227.824.348.241.161.443.376.604.643.161.268.242.578.242.93v8.808c0 .373-.066.673-.197.9-.13.227-.357.401-.68.522-.181.07-.398.121-.65.152-.251.03-.508.055-.77.075v1.105h9.55zm10.019.484c.866 0 1.627-.106 2.282-.318a8.125 8.125 0 001.934-.938 7.132 7.132 0 001.557-1.354 8.604 8.604 0 001.118-1.687l-1.134-.787c-.513.918-1.1 1.626-1.76 2.126-.66.5-1.549.749-2.667.749-1.169 0-2.174-.55-3.015-1.65-.841-1.1-1.262-2.547-1.262-4.343 0-1.19.093-2.209.28-3.056.186-.848.435-1.524.748-2.028.322-.535.67-.908 1.042-1.12a2.464 2.464 0 011.24-.318c.362 0 .63.048.8.144.172.096.313.235.424.416-.03.252-.126.62-.288 1.105a4.62 4.62 0 00-.241 1.468c0 .585.254 1.059.763 1.422s1.14.545 1.896.545c.937 0 1.597-.222 1.98-.666.383-.444.574-1.029.574-1.755 0-1.19-.539-2.136-1.617-2.838-1.078-.7-2.544-1.051-4.397-1.051-1.32 0-2.526.22-3.62.658-1.093.439-2.007 1.027-2.742 1.763a8.154 8.154 0 00-1.7 2.497 7.346 7.346 0 00-.628 2.996c0 1.15.172 2.214.514 3.193a6.849 6.849 0 001.557 2.542c.695.706 1.579 1.264 2.652 1.672 1.073.409 2.31.613 3.71.613zm16.623 0c1.42 0 2.682-.202 3.786-.605 1.103-.404 2.052-.984 2.848-1.74a6.934 6.934 0 001.7-2.55 8.64 8.64 0 00.582-3.17c0-1.13-.196-2.18-.59-3.148a6.94 6.94 0 00-1.707-2.497c-.766-.706-1.685-1.253-2.758-1.642-1.073-.388-2.315-.582-3.725-.582-1.35 0-2.572.194-3.665.582-1.093.389-2.012.936-2.758 1.642a7.253 7.253 0 00-1.745 2.52c-.388.943-.582 2.02-.582 3.23 0 1.231.222 2.344.665 3.337a7.204 7.204 0 001.814 2.505 7.975 7.975 0 002.742 1.589c1.033.353 2.164.53 3.393.53zm.166-1.226c-.665 0-1.214-.181-1.647-.544-.433-.363-.766-.858-.997-1.483a8.55 8.55 0 01-.514-2.172 29.133 29.133 0 01-.106-2.731c0-.837.04-1.642.12-2.414.082-.772.228-1.445.44-2.02.23-.625.56-1.135.989-1.528.428-.394 1-.59 1.715-.59.655 0 1.197.181 1.625.544.428.363.763.863 1.005 1.498.201.525.352 1.241.453 2.15a22.221 22.221 0 01-.007 5.235c-.106.807-.27 1.493-.492 2.058-.252.656-.594 1.153-1.027 1.49-.433.339-.952.507-1.557.507zm19.888.742V26.32a4.71 4.71 0 01-.71-.151 2.894 2.894 0 01-.605-.242 1.057 1.057 0 01-.499-.537c-.1-.237-.151-.532-.151-.886v-8.126c.12-.161.27-.348.446-.56.176-.211.41-.418.703-.62a4.193 4.193 0 011.02-.53 3.4 3.4 0 011.125-.181c.736 0 1.292.26 1.67.78.378.519.567 1.293.567 2.322v7.082c0 .413-.045.726-.136.938a.962.962 0 01-.453.484c-.141.07-.348.121-.62.152l-.695.075v1.105h9.097V26.32a4.359 4.359 0 01-.808-.151 5.259 5.259 0 01-.597-.212c-.302-.131-.509-.308-.62-.53-.11-.221-.166-.52-.166-.892V17.12c0-1.544-.41-2.782-1.232-3.715-.82-.933-2.052-1.4-3.694-1.4a7.08 7.08 0 00-1.935.257c-.604.172-1.093.379-1.466.62a9.9 9.9 0 00-1.118.863c-.403.353-.745.656-1.028.908h-.06V12.46l-.227-.227-7.208.393v1.105c.332.03.637.086.914.167.277.08.506.181.688.302.262.192.473.44.634.742.162.302.242.61.242.923v8.807c0 .373-.06.676-.181.908-.121.232-.343.403-.665.514-.181.06-.4.109-.657.144a13.7 13.7 0 01-.764.083v1.105h9.189zm31.629 0v-1.18a10.48 10.48 0 01-1.05-.174c-.408-.086-.708-.17-.9-.25-.382-.172-.642-.383-.778-.636-.136-.252-.204-.56-.204-.923V17.74h.831c1.4 1.695 2.572 3.188 3.514 4.48.942 1.29 2.123 3.026 3.544 5.205h8.22v-1.18a12.04 12.04 0 01-.763-.091 5.97 5.97 0 01-.884-.182c-.413-.13-.889-.481-1.428-1.051a23.134 23.134 0 01-1.277-1.446 251.53 251.53 0 01-2.848-3.586c-.912-1.17-1.71-2.2-2.396-3.087 1.763-.514 3.076-1.228 3.937-2.141.861-.913 1.292-2.121 1.292-3.624 0-1.705-.698-2.979-2.093-3.821-1.395-.843-3.438-1.264-6.128-1.264h-12.029v1.18c.252.04.597.106 1.035.197.439.09.819.202 1.141.333.423.182.69.393.801.636.111.242.166.544.166.908v15.147c0 .383-.065.699-.196.946s-.388.451-.77.613c-.202.08-.542.149-1.02.204a99.72 99.72 0 01-1.157.129v1.18h11.44zm-1.783-11.107h-1.149V7.329h1.194c1.481 0 2.622.33 3.423.991.8.661 1.201 1.708 1.201 3.14 0 1.685-.408 2.916-1.224 3.693-.816.776-1.964 1.165-3.445 1.165zm23.695 11.591c.897 0 1.69-.098 2.38-.295a9.316 9.316 0 002.048-.87 7.753 7.753 0 001.7-1.309 9.201 9.201 0 001.277-1.627l-1.148-.832a7.292 7.292 0 01-1.935 1.975c-.755.52-1.607.78-2.554.78-1.733 0-2.997-.54-3.793-1.62-.796-1.08-1.194-2.653-1.194-4.721h10.216v-.984c0-.857-.13-1.677-.393-2.459a5.16 5.16 0 00-1.254-2.035c-.595-.606-1.345-1.08-2.252-1.423-.907-.343-2.065-.514-3.476-.514-1.29 0-2.455.222-3.498.666-1.043.443-1.907 1.024-2.592 1.74a7.937 7.937 0 00-1.61 2.52 7.884 7.884 0 00-.566 2.958c0 1.14.174 2.196.522 3.17a6.845 6.845 0 001.579 2.535c.705.716 1.6 1.286 2.682 1.71 1.083.423 2.37.635 3.861.635zm-3.219-9.79c.04-1.705.293-2.951.756-3.738.463-.787 1.083-1.18 1.859-1.18.453 0 .828.12 1.126.363.297.242.531.6.702 1.074.151.404.257.923.318 1.559.06.635.09 1.256.09 1.861l-4.85.06zm21.505 9.442c.171-.545.385-1.15.642-1.816.257-.666.486-1.21.688-1.634a444.69 444.69 0 002.002-4.35c.68-1.499 1.373-2.984 2.078-4.457.282-.575.637-.999 1.065-1.271a3.438 3.438 0 011.322-.515v-1.104h-6.24v1.104c.15.02.342.056.573.106.232.05.474.126.726.227.242.101.45.22.627.356.176.136.264.295.264.476 0 .05-.007.152-.022.303a2.486 2.486 0 01-.159.59 182.4 182.4 0 01-3.143 7.264 1201.43 1201.43 0 01-2.063-4.555 155.321 155.321 0 01-1.458-3.314 7.505 7.505 0 01-.151-.409.962.962 0 01-.06-.272c0-.222.23-.403.694-.545.464-.141.867-.217 1.21-.227v-1.104h-9.31v1.104c.464.06.92.227 1.368.5.448.272.778.645.99 1.12a606.82 606.82 0 002.607 5.72c.82 1.775 1.81 4.01 2.97 6.703h2.78zm12.482-18.007c.806 0 1.504-.27 2.093-.81.59-.54.884-1.193.884-1.96 0-.766-.292-1.422-.876-1.967a2.973 2.973 0 00-2.1-.817 3 3 0 00-2.109.817c-.59.545-.884 1.2-.884 1.967 0 .767.295 1.42.884 1.96.59.54 1.292.81 2.108.81zm5.184 17.871V26.32a4.555 4.555 0 01-.756-.151 5.098 5.098 0 01-.665-.242 1.374 1.374 0 01-.65-.552c-.15-.248-.226-.548-.226-.9V12.458l-.227-.227-7.405.393v1.105c.302.03.637.101 1.005.212.368.111.642.227.824.348.241.161.443.376.604.643.161.268.242.578.242.93v8.808c0 .373-.066.673-.197.9-.13.227-.357.401-.68.522-.181.07-.398.121-.65.152-.251.03-.508.055-.77.075v1.105h9.55zm10.23.484c.897 0 1.69-.098 2.38-.295a9.316 9.316 0 002.048-.87 7.753 7.753 0 001.7-1.309 9.201 9.201 0 001.277-1.627l-1.148-.832a7.292 7.292 0 01-1.935 1.975c-.755.52-1.607.78-2.554.78-1.732 0-2.997-.54-3.793-1.62-.796-1.08-1.193-2.653-1.193-4.721h10.215v-.984c0-.857-.13-1.677-.393-2.459a5.16 5.16 0 00-1.254-2.035c-.594-.606-1.345-1.08-2.252-1.423-.906-.343-2.065-.514-3.475-.514-1.29 0-2.456.222-3.499.666-1.043.443-1.906 1.024-2.592 1.74a7.937 7.937 0 00-1.609 2.52 7.884 7.884 0 00-.567 2.958c0 1.14.174 2.196.522 3.17a6.845 6.845 0 001.579 2.535c.705.716 1.6 1.286 2.682 1.71 1.083.423 2.37.635 3.861.635zm-3.218-9.79c.04-1.705.292-2.951.755-3.738.464-.787 1.083-1.18 1.859-1.18.453 0 .829.12 1.126.363.297.242.531.6.702 1.074.152.404.257.923.318 1.559.06.635.09 1.256.09 1.861l-4.85.06zm20.93 9.442l3.566-10.29 3.808 10.29h2.947c.131-.464.31-1.06.537-1.785.226-.727.42-1.297.581-1.71a369.58 369.58 0 011.784-4.586c.423-1.059.987-2.451 1.692-4.176.272-.646.605-1.087.997-1.324a3.489 3.489 0 011.285-.462v-1.104h-6.241v1.104c.161.02.36.056.597.106.236.05.48.121.733.212.251.09.468.21.65.356.18.146.271.31.271.491.01.05.008.16-.007.326a2.558 2.558 0 01-.129.567 326.856 326.856 0 01-1.201 3.458 226.99 226.99 0 01-1.352 3.67l-3.824-10.29h-2.992l-3.355 9.957c-.635-1.655-1.189-3.105-1.662-4.35a111.473 111.473 0 01-1.118-3.05c-.06-.202-.104-.34-.129-.416a.84.84 0 01-.038-.265c0-.222.237-.398.71-.53a7.014 7.014 0 011.225-.242v-1.104h-9.28v1.104c.464.06.915.227 1.353.5.439.272.748.645.93 1.12a1009.68 1009.68 0 012.342 6.015 541.893 541.893 0 012.403 6.408h2.917z" id="TheSiliconReview"/></g></g></g></g></svg>